<svg width="24" height="25" viewBox="0 0 24 25" fill="none" xmlns="http://www.w3.org/2000/svg">
<path fill-rule="evenodd" clip-rule="evenodd" d="M18.3 6.53617C17.91 6.14617 17.28 6.14617 16.89 6.53617L12 11.4162L7.10997 6.52617C6.71997 6.13617 6.08997 6.13617 5.69997 6.52617C5.30997 6.91617 5.30997 7.54617 5.69997 7.93617L10.59 12.8262L5.69997 17.7162C5.30997 18.1062 5.30997 18.7362 5.69997 19.1262C6.08997 19.5162 6.71997 19.5162 7.10997 19.1262L12 14.2362L16.89 19.1262C17.28 19.5162 17.91 19.5162 18.3 19.1262C18.69 18.7362 18.69 18.1062 18.3 17.7162L13.41 12.8262L18.3 7.93617C18.68 7.55617 18.68 6.91617 18.3 6.53617Z" fill="white"/>
</svg>
