<svg width="296" height="60" viewBox="0 0 296 60" fill="none" xmlns="http://www.w3.org/2000/svg">
<path d="M48.2403 19.1136C48.2403 21.4774 47.6706 23.638 46.5312 25.5956C45.4298 27.5162 43.7397 29.0674 41.4608 30.2493C39.22 31.3943 36.4664 31.9668 33.2001 31.9668H27.6739V45.1524H16.5076V31.9668V6.09418H33.2001C36.4284 6.09418 39.163 6.6482 41.4038 7.75623C43.6827 8.86427 45.3918 10.397 46.5312 12.3546C47.6706 14.3121 48.2403 16.5651 48.2403 19.1136ZM32.1176 23.3241C35.27 23.3241 36.8462 21.9206 36.8462 19.1136C36.8462 16.2696 35.27 14.8476 32.1176 14.8476H16.5076V23.3241H32.1176ZM63.8927 19.5568C65.146 17.7839 66.6653 16.3804 68.4503 15.3463C70.2354 14.3121 72.1534 13.795 74.2044 13.795V25.374H71.071C68.6402 25.374 66.8362 25.8356 65.6588 26.759C64.4814 27.6824 63.8927 29.289 63.8927 31.5789V45.1524H52.7264V14.072H63.8927V19.5568ZM93.0768 45.5402C89.8864 45.5402 87.0189 44.8938 84.4742 43.6011C81.9675 42.3084 79.9925 40.4617 78.5492 38.0609C77.1059 35.6602 76.3843 32.8347 76.3843 29.5845C76.3843 26.3712 77.1059 23.5642 78.5492 21.1634C80.0304 18.7627 82.0244 16.916 84.5311 15.6233C87.0758 14.3306 89.9434 13.6842 93.1337 13.6842C96.3241 13.6842 99.1726 14.3306 101.679 15.6233C104.224 16.916 106.218 18.7627 107.661 21.1634C109.143 23.5642 109.883 26.3712 109.883 29.5845C109.883 32.7978 109.143 35.6233 107.661 38.0609C106.218 40.4617 104.224 42.3084 101.679 43.6011C99.1347 44.8938 96.2671 45.5402 93.0768 45.5402ZM93.0768 36.1219C94.634 36.1219 95.9253 35.5679 96.9508 34.4598C98.0142 33.3149 98.546 31.6898 98.546 29.5845C98.546 27.4792 98.0142 25.8726 96.9508 24.7645C95.9253 23.6565 94.6529 23.1025 93.1337 23.1025C91.6145 23.1025 90.3422 23.6565 89.3167 24.7645C88.2912 25.8726 87.7785 27.4792 87.7785 29.5845C87.7785 31.7267 88.2722 33.3518 89.2597 34.4598C90.2472 35.5679 91.5196 36.1219 93.0768 36.1219ZM128.042 45.5402C125.156 45.5402 122.573 45.0785 120.294 44.1551C118.053 43.1948 116.268 41.9021 114.939 40.277C113.648 38.615 112.926 36.7498 112.774 34.6814H123.598C123.75 35.6787 124.225 36.4543 125.023 37.0083C125.82 37.5623 126.808 37.8393 127.985 37.8393C128.897 37.8393 129.618 37.6547 130.15 37.2853C130.682 36.916 130.948 36.4358 130.948 35.8449C130.948 35.0693 130.511 34.4968 129.637 34.1274C128.764 33.7581 127.321 33.3518 125.308 32.9086C123.029 32.4654 121.13 31.9668 119.611 31.4127C118.091 30.8587 116.762 29.9538 115.623 28.6981C114.521 27.4423 113.97 25.7433 113.97 23.6011C113.97 21.7544 114.483 20.0923 115.509 18.615C116.534 17.1006 118.034 15.9003 120.009 15.0139C122.022 14.1274 124.434 13.6842 127.245 13.6842C131.422 13.6842 134.708 14.6814 137.101 16.6759C139.493 18.6704 140.88 21.2927 141.259 24.5429H131.176C130.986 23.5457 130.53 22.7886 129.808 22.2715C129.125 21.7175 128.194 21.4404 127.017 21.4404C126.105 21.4404 125.403 21.6066 124.909 21.9391C124.453 22.2715 124.225 22.7331 124.225 23.3241C124.225 24.0628 124.662 24.6353 125.535 25.0415C126.409 25.4109 127.814 25.7987 129.751 26.205C132.068 26.6851 133.986 27.2207 135.505 27.8116C137.063 28.4026 138.411 29.3629 139.55 30.6925C140.728 31.9852 141.316 33.7581 141.316 36.0111C141.316 37.8209 140.766 39.446 139.664 40.8864C138.601 42.3269 137.063 43.4718 135.05 44.3213C133.075 45.1339 130.739 45.5402 128.042 45.5402ZM157.972 18.3934C158.846 16.9529 160.08 15.8079 161.676 14.9584C163.271 14.109 165.151 13.6842 167.316 13.6842C169.86 13.6842 172.158 14.3306 174.209 15.6233C176.298 16.916 177.931 18.7627 179.109 21.1634C180.324 23.5642 180.932 26.3712 180.932 29.5845C180.932 32.7978 180.324 35.6233 179.109 38.0609C177.931 40.4617 176.298 42.3084 174.209 43.6011C172.158 44.8938 169.86 45.5402 167.316 45.5402C165.151 45.5402 163.271 45.1154 161.676 44.2659C160.118 43.4164 158.884 42.2715 157.972 40.831V60H146.806V14.072H157.972V18.3934ZM169.594 29.5845C169.594 27.5531 169.025 25.9834 167.885 24.8753C166.784 23.7304 165.417 23.1579 163.783 23.1579C162.15 23.1579 160.764 23.7304 159.625 24.8753C158.523 26.0203 157.972 27.59 157.972 29.5845C157.972 31.6159 158.523 33.2041 159.625 34.349C160.764 35.494 162.15 36.0665 163.783 36.0665C165.417 36.0665 166.784 35.494 167.885 34.349C169.025 33.1671 169.594 31.5789 169.594 29.5845ZM216.065 29.2521C216.065 30.1016 216.008 30.9511 215.894 31.8006H194.758C194.872 33.4995 195.346 34.7738 196.182 35.6233C197.056 36.4358 198.157 36.8421 199.486 36.8421C201.347 36.8421 202.677 36.0295 203.474 34.4044H215.381C214.887 36.5466 213.919 38.4672 212.476 40.1662C211.07 41.8283 209.285 43.1394 207.12 44.0997C204.956 45.06 202.563 45.5402 199.942 45.5402C196.79 45.5402 193.979 44.8938 191.51 43.6011C189.08 42.3084 187.162 40.4617 185.756 38.0609C184.389 35.6602 183.705 32.8347 183.705 29.5845C183.705 26.3343 184.389 23.5272 185.756 21.1634C187.124 18.7627 189.023 16.916 191.453 15.6233C193.922 14.3306 196.752 13.6842 199.942 13.6842C203.094 13.6842 205.886 14.3121 208.317 15.5679C210.748 16.8236 212.647 18.6334 214.014 20.9972C215.381 23.3241 216.065 26.0757 216.065 29.2521ZM204.671 26.5374C204.671 25.2078 204.215 24.1736 203.303 23.4349C202.392 22.6593 201.252 22.2715 199.885 22.2715C198.518 22.2715 197.397 22.6408 196.524 23.3795C195.65 24.0813 195.081 25.1339 194.815 26.5374H204.671ZM231.801 19.5568C233.054 17.7839 234.573 16.3804 236.358 15.3463C238.143 14.3121 240.061 13.795 242.112 13.795V25.374H238.979C236.548 25.374 234.744 25.8356 233.567 26.759C232.389 27.6824 231.801 29.289 231.801 31.5789V45.1524H220.634V14.072H231.801V19.5568ZM251.755 11.1911C249.78 11.1911 248.185 10.6741 246.97 9.63989C245.793 8.56879 245.204 7.23915 245.204 5.65097C245.204 4.02585 245.793 2.67775 246.97 1.60665C248.185 0.53555 249.78 0 251.755 0C253.692 0 255.25 0.53555 256.427 1.60665C257.642 2.67775 258.25 4.02585 258.25 5.65097C258.25 7.23915 257.642 8.56879 256.427 9.63989C255.25 10.6741 253.692 11.1911 251.755 11.1911ZM257.282 14.072V45.1524H246.115V14.072H257.282ZM261.818 29.5845C261.818 26.3712 262.406 23.5642 263.584 21.1634C264.799 18.7627 266.432 16.916 268.483 15.6233C270.572 14.3306 272.889 13.6842 275.434 13.6842C277.636 13.6842 279.535 14.109 281.131 14.9584C282.726 15.8079 283.96 16.9529 284.834 18.3934V14.072H296V45.1524H284.834V40.831C283.96 42.2715 282.707 43.4164 281.074 44.2659C279.478 45.1154 277.598 45.5402 275.434 45.5402C272.889 45.5402 270.572 44.8938 268.483 43.6011C266.432 42.3084 264.799 40.4617 263.584 38.0609C262.406 35.6233 261.818 32.7978 261.818 29.5845ZM284.834 29.5845C284.834 27.59 284.264 26.0203 283.125 24.8753C282.023 23.7304 280.656 23.1579 279.023 23.1579C277.352 23.1579 275.965 23.7304 274.864 24.8753C273.762 25.9834 273.212 27.5531 273.212 29.5845C273.212 31.5789 273.762 33.1671 274.864 34.349C275.965 35.494 277.352 36.0665 279.023 36.0665C280.656 36.0665 282.023 35.494 283.125 34.349C284.264 33.2041 284.834 31.6159 284.834 29.5845Z" fill="white"/>
<path d="M16.5076 31.9668V23.3241H6.90179L0 31.9668H16.5076Z" fill="white"/>
</svg>
